<?xml version="1.0" encoding="utf-8"?>
<!-- Generator: Adobe Illustrator 27.5.0, SVG Export Plug-In . SVG Version: 6.00 Build 0)  -->
<svg version="1.1" id="Layer_1" xmlns="http://www.w3.org/2000/svg" xmlns:xlink="http://www.w3.org/1999/xlink" x="0px" y="0px"
	 viewBox="0 0 500 178.5" style="enable-background:new 0 0 500 178.5;" xml:space="preserve">
<style type="text/css">
	.st0{fill:#F88125;}
	.st1{fill:#FFFFFF;}
	.st2{fill:#11224E;}
</style>
<g>
	<rect class="st0" width="500" height="178.5"/>
	<rect x="7.6" y="7.6" class="st1" width="484.8" height="163.3"/>
	<rect x="18.4" y="18.4" class="st2" width="463.1" height="141.6"/>
	<g>
		<path class="st1" d="M50.8,46.9h19.7c6.8,0,11.9,1.6,15.4,4.8c3.5,3.2,5.3,7.7,5.3,13.4V73c0,7.4-3.1,12.1-9.3,14.2
			c7,1.9,10.6,6.7,10.6,14.5v11.7c0,5.8-1.7,10.3-5.2,13.5c-3.5,3.2-8.6,4.8-15.5,4.8h-21V46.9z M82,73v-7.8c0-3.3-1-5.9-3-7.7
			c-2-1.8-4.9-2.7-8.6-2.7H59.9V84h10.6c3.8,0,6.7-1,8.7-3C81.1,79,82,76.3,82,73z M83.3,113.4v-11.7c0-3.3-1-6-3-8
			c-2-2-4.9-3.1-8.6-3.1H59.9v33.2h11.9C79.5,123.8,83.3,120.3,83.3,113.4z"/>
		<path class="st1" d="M114.8,131.6h-9.1V46.9h9.1V131.6z"/>
		<path class="st1" d="M149.9,131.6h-21V46.9h21c6.8,0,11.9,1.6,15.4,4.8c3.5,3.2,5.3,7.7,5.3,13.4v48.2c0,5.8-1.7,10.3-5.2,13.5
			C161.9,130,156.7,131.6,149.9,131.6z M161.5,113.4V65.1c0-3.3-1-5.9-3-7.7c-2-1.8-4.9-2.7-8.6-2.7H138v69.1h11.9
			C157.6,123.8,161.5,120.3,161.5,113.4z"/>
		<path class="st1" d="M207.7,115.3v-11.7c0-9.3,3.1-15.1,9.4-17.5c-4.5-7-6.8-12.5-6.8-16.4v-6.5c0-5.8,1.8-10.3,5.4-13.5
			c3.6-3.2,9.1-4.8,16.4-4.8c14,0,21,6.1,21,18.2v11.1H244V62.7c0-3.1-1-5.6-3.1-7.3c-2-1.7-5.1-2.6-9.2-2.6c-4.1,0-7.1,0.9-9.2,2.6
			c-2,1.7-3.1,4.2-3.1,7.3v7c0,3.1,2.4,8.1,7.2,15h35.7v7.8h-10.6v22.8c0,12.2-7.3,18.2-22,18.2
			C215.1,133.6,207.7,127.5,207.7,115.3z M242.7,115.8V92.5h-16.8c-6,0-9,3.7-9,11.1v12.3c0,3.1,1.1,5.6,3.3,7.3
			c2.2,1.7,5.4,2.6,9.6,2.6c4.3,0,7.5-0.9,9.6-2.6C241.6,121.4,242.7,119,242.7,115.8z"/>
		<path class="st1" d="M295,46.9h19.7c6.8,0,11.9,1.6,15.4,4.8c3.5,3.2,5.3,7.7,5.3,13.4V73c0,7.4-3.1,12.1-9.3,14.2
			c7,1.9,10.6,6.7,10.6,14.5v11.7c0,5.8-1.7,10.3-5.2,13.5c-3.5,3.2-8.6,4.8-15.5,4.8h-21V46.9z M326.3,73v-7.8c0-3.3-1-5.9-3-7.7
			c-2-1.8-4.9-2.7-8.6-2.7h-10.6V84h10.6c3.8,0,6.7-1,8.7-3C325.4,79,326.3,76.3,326.3,73z M327.6,113.4v-11.7c0-3.3-1-6-3-8
			c-2-2-4.9-3.1-8.6-3.1h-11.9v33.2H316C323.8,123.8,327.6,120.3,327.6,113.4z"/>
		<path class="st1" d="M349.3,115.3V46.9h9.1v68.4c0,3.3,0.7,5.9,2.2,7.7s4.1,2.7,7.9,2.7c3.8,0,7.3-1.5,10.6-4.4
			c3.2-3,4.8-5.8,4.8-8.6V46.9h9.1v84.7h-3.9l-3.4-8.3c-1.9,3.1-4.4,5.6-7.4,7.5c-3,1.9-6.3,2.8-9.8,2.8
			C355.7,133.6,349.3,127.5,349.3,115.3z"/>
		<path class="st1" d="M431.8,131.6h-9.1v-24c-11.8-1.3-17.7-7.3-17.7-18V46.9h9.1v42.8c0,7,4.3,10.4,13,10.4c8.7,0,13-3.5,13-10.4
			V46.9h9.1v42.8c0,10.7-5.8,16.7-17.5,18V131.6z"/>
	</g>
</g>
</svg>
